<?xml version="1.0" standalone="no"?>
<!DOCTYPE svg PUBLIC "-//W3C//DTD SVG 20010904//EN"
 "http://www.w3.org/TR/2001/REC-SVG-20010904/DTD/svg10.dtd">
<svg version="1.0" xmlns="http://www.w3.org/2000/svg"
 width="1280.000000pt" height="1263.000000pt" viewBox="0 0 1280.000000 1263.000000"
 preserveAspectRatio="xMidYMid meet">
<metadata>
Created by potrace 1.15, written by Peter Selinger 2001-2017
</metadata>
<g transform="translate(0.000000,1263.000000) scale(0.100000,-0.100000)"
fill="#ffeb3b" stroke="none">
<path d="M6218 12247 c-97 -204 -402 -847 -678 -1427 -276 -580 -639 -1343
-806 -1695 -168 -352 -308 -643 -313 -648 -7 -7 -679 -112 -3501 -544 -492
-75 -899 -140 -904 -144 -5 -4 339 -358 765 -786 1397 -1406 2071 -2085 2246
-2263 l172 -175 -115 -695 c-237 -1432 -515 -3108 -575 -3473 -34 -207 -59
-380 -56 -383 3 -3 623 333 1379 747 755 414 1627 891 1938 1062 311 170 579
317 597 327 l31 18 1973 -1069 c1085 -588 1974 -1067 1977 -1065 4 5 -13 111
-289 1776 -99 597 -202 1220 -229 1385 -27 165 -90 545 -140 844 l-90 544 195
201 c107 110 826 840 1598 1621 1021 1033 1399 1422 1388 1426 -9 3 -41 9 -71
13 -52 7 -323 46 -1810 266 -1523 225 -1847 273 -2170 320 -189 28 -348 54
-351 58 -4 4 -269 556 -589 1227 -320 671 -762 1599 -983 2063 -221 463 -404
842 -407 842 -3 0 -85 -168 -182 -373z"/>
</g>
</svg>
